<mxfile host="app.diagrams.net" agent="Mozilla/5.0 (Windows NT 10.0; Win64; x64; rv:136.0) Gecko/20100101 Firefox/136.0" version="26.1.3">
  <diagram name="Page-1" id="on_ZMz9R0u2kNMyGvYF2">
    <mxGraphModel dx="1623" dy="1138" grid="1" gridSize="10" guides="1" tooltips="1" connect="1" arrows="1" fold="1" page="1" pageScale="1" pageWidth="827" pageHeight="1169" math="0" shadow="0">
      <root>
        <mxCell id="0" />
        <mxCell id="1" parent="0" />
        <mxCell id="7Ns6qGcEn2l0TL0ECmx--20" value="Physiological tier" style="swimlane;horizontal=0;whiteSpace=wrap;html=1;startSize=23;" vertex="1" parent="1">
          <mxGeometry x="59" y="80" width="721" height="160" as="geometry" />
        </mxCell>
        <mxCell id="7Ns6qGcEn2l0TL0ECmx--16" value="Air" style="shape=parallelogram;perimeter=parallelogramPerimeter;whiteSpace=wrap;html=1;fixedSize=1;fillColor=#f5f5f5;strokeColor=#666666;fontColor=#333333;" vertex="1" parent="7Ns6qGcEn2l0TL0ECmx--20">
          <mxGeometry x="90.5" y="50" width="120" height="60" as="geometry" />
        </mxCell>
        <mxCell id="7Ns6qGcEn2l0TL0ECmx--17" value="Shelter" style="shape=parallelogram;perimeter=parallelogramPerimeter;whiteSpace=wrap;html=1;fixedSize=1;fillColor=#fff2cc;strokeColor=#d6b656;" vertex="1" parent="7Ns6qGcEn2l0TL0ECmx--20">
          <mxGeometry x="230.5" y="50" width="120" height="60" as="geometry" />
        </mxCell>
        <mxCell id="7Ns6qGcEn2l0TL0ECmx--18" value="Water" style="shape=parallelogram;perimeter=parallelogramPerimeter;whiteSpace=wrap;html=1;fixedSize=1;fillColor=#dae8fc;strokeColor=#6c8ebf;" vertex="1" parent="7Ns6qGcEn2l0TL0ECmx--20">
          <mxGeometry x="370.5" y="50" width="120" height="60" as="geometry" />
        </mxCell>
        <mxCell id="7Ns6qGcEn2l0TL0ECmx--19" value="Food" style="shape=parallelogram;perimeter=parallelogramPerimeter;whiteSpace=wrap;html=1;fixedSize=1;fillColor=#d5e8d4;strokeColor=#82b366;" vertex="1" parent="7Ns6qGcEn2l0TL0ECmx--20">
          <mxGeometry x="510.5" y="50" width="120" height="60" as="geometry" />
        </mxCell>
        <mxCell id="7Ns6qGcEn2l0TL0ECmx--21" value="Healthcare" style="shape=parallelogram;perimeter=parallelogramPerimeter;whiteSpace=wrap;html=1;fixedSize=1;" vertex="1" parent="1">
          <mxGeometry x="140" y="320" width="120" height="60" as="geometry" />
        </mxCell>
        <mxCell id="7Ns6qGcEn2l0TL0ECmx--22" value="Education" style="shape=parallelogram;perimeter=parallelogramPerimeter;whiteSpace=wrap;html=1;fixedSize=1;" vertex="1" parent="1">
          <mxGeometry x="290" y="320" width="120" height="60" as="geometry" />
        </mxCell>
        <mxCell id="7Ns6qGcEn2l0TL0ECmx--25" value="Justice" style="shape=parallelogram;perimeter=parallelogramPerimeter;whiteSpace=wrap;html=1;fixedSize=1;" vertex="1" parent="1">
          <mxGeometry x="430" y="320" width="120" height="60" as="geometry" />
        </mxCell>
        <mxCell id="7Ns6qGcEn2l0TL0ECmx--26" value="" style="shape=flexArrow;endArrow=classic;html=1;rounded=0;" edge="1" parent="1">
          <mxGeometry width="50" height="50" relative="1" as="geometry">
            <mxPoint x="490" y="390" as="sourcePoint" />
            <mxPoint x="490" y="420" as="targetPoint" />
          </mxGeometry>
        </mxCell>
        <mxCell id="7Ns6qGcEn2l0TL0ECmx--27" value="Rescue" style="shape=parallelogram;perimeter=parallelogramPerimeter;whiteSpace=wrap;html=1;fixedSize=1;" vertex="1" parent="1">
          <mxGeometry x="570" y="320" width="120" height="60" as="geometry" />
        </mxCell>
        <mxCell id="7Ns6qGcEn2l0TL0ECmx--28" value="&lt;div align=&quot;left&quot;&gt;&lt;ul&gt;&lt;li&gt;Protection&lt;/li&gt;&lt;li&gt;Redress&lt;/li&gt;&lt;/ul&gt;&lt;/div&gt;" style="shape=document;whiteSpace=wrap;html=1;boundedLbl=1;align=left;" vertex="1" parent="1">
          <mxGeometry x="430" y="430" width="120" height="80" as="geometry" />
        </mxCell>
        <mxCell id="7Ns6qGcEn2l0TL0ECmx--29" value="&lt;div align=&quot;left&quot;&gt;&lt;ul&gt;&lt;li&gt;Disaster&lt;/li&gt;&lt;li&gt;Fire&lt;/li&gt;&lt;li&gt;Lost / Trapped&lt;/li&gt;&lt;li&gt;Hurt&lt;/li&gt;&lt;/ul&gt;&lt;/div&gt;" style="shape=document;whiteSpace=wrap;html=1;boundedLbl=1;align=left;" vertex="1" parent="1">
          <mxGeometry x="570" y="430" width="120" height="100" as="geometry" />
        </mxCell>
        <mxCell id="7Ns6qGcEn2l0TL0ECmx--30" value="" style="shape=flexArrow;endArrow=classic;html=1;rounded=0;" edge="1" parent="1">
          <mxGeometry width="50" height="50" relative="1" as="geometry">
            <mxPoint x="629.5" y="390" as="sourcePoint" />
            <mxPoint x="629.5" y="420" as="targetPoint" />
          </mxGeometry>
        </mxCell>
        <mxCell id="7Ns6qGcEn2l0TL0ECmx--31" value="&lt;div align=&quot;left&quot;&gt;&lt;ul&gt;&lt;li&gt;Prevention&lt;/li&gt;&lt;li&gt;Detection&lt;/li&gt;&lt;li&gt;Treatment&lt;/li&gt;&lt;/ul&gt;&lt;/div&gt;" style="shape=document;whiteSpace=wrap;html=1;boundedLbl=1;align=left;" vertex="1" parent="1">
          <mxGeometry x="140" y="430" width="120" height="80" as="geometry" />
        </mxCell>
        <mxCell id="7Ns6qGcEn2l0TL0ECmx--32" value="" style="shape=flexArrow;endArrow=classic;html=1;rounded=0;" edge="1" parent="1">
          <mxGeometry width="50" height="50" relative="1" as="geometry">
            <mxPoint x="199.5" y="390" as="sourcePoint" />
            <mxPoint x="199.5" y="420" as="targetPoint" />
          </mxGeometry>
        </mxCell>
      </root>
    </mxGraphModel>
  </diagram>
</mxfile>
